<svg width="16" height="15" viewBox="0 0 16 15" fill="none"
    xmlns="http://www.w3.org/2000/svg">
    <path fill-rule="evenodd" clip-rule="evenodd" d="M7.99999 13.5C11.3137 13.5 14 10.8137 14 7.49999C14 4.18628 11.3137 1.49999 7.99999 1.49999C4.68628 1.49999 1.99999 4.18628 1.99999 7.49999C1.99999 10.8137 4.68628 13.5 7.99999 13.5ZM7.99999 14.8333C12.0501 14.8333 15.3333 11.5501 15.3333 7.49999C15.3333 3.4499 12.0501 0.166656 7.99999 0.166656C3.9499 0.166656 0.666656 3.4499 0.666656 7.49999C0.666656 11.5501 3.9499 14.8333 7.99999 14.8333ZM7.33332 4.17191C7.33332 3.97943 7.39129 3.8202 7.50724 3.69422C7.6264 3.56473 7.79065 3.49999 7.99999 3.49999C8.20611 3.49999 8.36875 3.56473 8.48791 3.69422C8.60708 3.8202 8.66666 3.97943 8.66666 4.17191C8.66666 4.36088 8.60708 4.51836 8.48791 4.64435C8.36875 4.77033 8.20611 4.83332 7.99999 4.83332C7.79065 4.83332 7.6264 4.77033 7.50724 4.64435C7.39129 4.51836 7.33332 4.36088 7.33332 4.17191ZM7.99999 6.16666C7.6318 6.16666 7.33332 6.46513 7.33332 6.83332V10.8333C7.33332 11.2015 7.6318 11.5 7.99999 11.5C8.36818 11.5 8.66666 11.2015 8.66666 10.8333V6.83332C8.66666 6.46513 8.36818 6.16666 7.99999 6.16666Z" fill="currentColor" />
</svg>