<svg width="16" height="16" viewBox="0 0 16 16" fill="none"
    xmlns="http://www.w3.org/2000/svg">
    <path d="M2 8.66667C1.63181 8.66667 1.33334 8.36819 1.33334 8.00001C1.33334 7.63182 1.63181 7.33334 2 7.33334L14 7.33334C14.3682 7.33334 14.6667 7.63182 14.6667 8.00001C14.6667 8.36819 14.3682 8.66667 14 8.66667H2Z" fill="currentColor" fill-opacity="0.7" />
    <path fill-rule="evenodd" clip-rule="evenodd" d="M8 1.33333C7.63181 1.33333 7.33334 1.63181 7.33334 1.99999V7.33333H2C1.63181 7.33333 1.33334 7.6318 1.33334 7.99999C1.33334 8.36819 1.63181 8.66666 2 8.66666H7.33334V14C7.33334 14.3682 7.63181 14.6667 8 14.6667C8.36819 14.6667 8.66667 14.3682 8.66667 14V8.66666H14C14.3682 8.66666 14.6667 8.36819 14.6667 8C14.6667 7.6318 14.3682 7.33333 14 7.33333H8.66667V1.99999C8.66667 1.63181 8.36819 1.33333 8 1.33333Z" fill="currentColor" fill-opacity="0.7" />
</svg>