<svg width="18" height="18" viewBox="0 0 18 18" fill="none" xmlns="http://www.w3.org/2000/svg">
<path fill-rule="evenodd" clip-rule="evenodd" d="M9 18C13.9706 18 18 13.9706 18 9C18 4.02944 13.9706 0 9 0C4.02944 0 0 4.02944 0 9C0 13.9706 4.02944 18 9 18ZM14.8677 7.00547C15.3525 6.51393 15.347 5.72249 14.8554 5.23774C14.3639 4.753 13.5724 4.7585 13.0877 5.25004L7.47962 10.9367L5.551 9.08687C5.05277 8.609 4.26149 8.62549 3.78361 9.12372C3.30574 9.62194 3.32224 10.4132 3.82046 10.8911L6.63876 13.5943C7.1321 14.0675 7.91405 14.0566 8.39404 13.5699L14.8677 7.00547Z" fill="#7C8FF1"/>
</svg>
